<?xml version="1.0" encoding="iso-8859-1"?>
<!-- Generator: Adobe Illustrator 19.0.0, SVG Export Plug-In . SVG Version: 6.00 Build 0)  -->
<svg xmlns="http://www.w3.org/2000/svg" xmlns:xlink="http://www.w3.org/1999/xlink" version="1.1" id="Layer_1" x="0px" y="0px" viewBox="0 0 300.95 300.95" style="enable-background:new 0 0 300.95 300.95;" xml:space="preserve" width="512px" height="512px">
<g>
	<g>
		<g>
			<path d="M129.363,171.47c0,11.635,9.425,21.06,21.06,21.06s21.06-9.425,21.06-21.06c0-11.635-9.425-21.06-21.06-21.06     C138.788,150.41,129.363,159.835,129.363,171.47z M161.733,171.535c0,6.24-5.07,11.31-11.31,11.31s-11.31-5.07-11.31-11.31     s5.07-11.31,11.31-11.31S161.733,165.295,161.733,171.535z" fill="#FFFFFF"/>
			<path d="M300.703,114.27c-10.855-35.165-27.56-60.84-52.585-80.86C221.208,12.155,185.588,0,150.488,0     c-35.62,0-71.5,12.155-98.475,33.41c-24.245,19.37-40.69,45.11-51.74,80.795c-0.52,1.625-0.13,3.38,0.975,4.68l119.73,136.695     c0.065,0.13,0.195,0.195,0.325,0.325c-1.755,3.9-2.73,8.125-2.73,12.675c0,18.135,14.235,32.37,32.37,32.37     c17.42,0,31.59-14.495,31.59-32.37c0-4.615-1.04-9.165-2.99-13.26l120.25-136.37C300.833,117.65,301.158,115.895,300.703,114.27z      M150.813,291.2c-12.675,0-22.62-9.945-22.62-22.62c0-12.025,10.14-21.84,22.62-21.84c11.83,0,21.84,10.01,21.84,21.84     C172.653,281.06,162.838,291.2,150.813,291.2z M173.758,247.13c-0.26-0.325-0.455-0.585-0.65-0.78     c-5.98-5.98-13.91-9.295-22.23-9.295c-9.555,0-18.135,4.03-24.115,10.53l-58.76-67.08l82.81-72.02l81.835,71.825L173.758,247.13z      M239.083,172.9l-85.02-74.62c-1.82-1.625-4.55-1.625-6.435,0l-86.06,74.815l-51.285-58.5     c10.53-32.825,25.35-55.575,47.71-73.515c25.285-19.89,58.955-31.33,92.43-31.33c32.955,0,66.365,11.44,91.585,31.265     c22.75,18.2,38.22,41.6,48.555,73.515L239.083,172.9z" fill="#FFFFFF"/>
		</g>
	</g>
</g>
<g>
</g>
<g>
</g>
<g>
</g>
<g>
</g>
<g>
</g>
<g>
</g>
<g>
</g>
<g>
</g>
<g>
</g>
<g>
</g>
<g>
</g>
<g>
</g>
<g>
</g>
<g>
</g>
<g>
</g>
</svg>
