<?xml version="1.0" encoding="iso-8859-1"?>
<!-- Generator: Adobe Illustrator 19.0.0, SVG Export Plug-In . SVG Version: 6.00 Build 0)  -->
<svg xmlns="http://www.w3.org/2000/svg" xmlns:xlink="http://www.w3.org/1999/xlink" version="1.1" id="Capa_1" x="0px" y="0px" viewBox="0 0 460 460" style="enable-background:new 0 0 460 460;" xml:space="preserve" width="512px" height="512px">
<g id="XMLID_2_">
	<path id="XMLID_4_" d="M348.697,285.696c-6.955,32.172-32.491,57.038-64.697,63.293V460h176   C460,382.386,414.414,316.031,348.697,285.696z" fill="#FFFFFF"/>
	<path id="XMLID_5_" d="M268.065,320.528c26.535,0,48.524-19.752,52.028-45.363c-16.547-4.625-33.996-7.101-52.028-7.101   c-18.032,0-35.482,2.476-52.028,7.101C219.541,300.776,241.53,320.528,268.065,320.528z" fill="#FFFFFF"/>
	<path id="XMLID_6_" d="M187.433,285.696C129.456,312.458,87.161,367.257,78,433.089V430H66.197l10.797-160H1.056l11.321,160H0v30   h254V349.319C220.917,343.679,194.521,318.487,187.433,285.696z" fill="#FFFFFF"/>
	<path id="XMLID_7_" d="M269,134v30H168.422c12.868,42.846,52.607,74.064,99.643,74.064c57.456,0,104.032-46.577,104.032-104.032   S325.521,30,268.065,30c-47.013,0-86.735,31.188-99.624,74H108v30H269z" fill="#FFFFFF"/>
	<path id="XMLID_8_" d="M78,38.997C78,17.459,60.573,0,39.035,0S0,17.377,0,38.914V240h78V38.997z" fill="#FFFFFF"/>
</g>
<g>
</g>
<g>
</g>
<g>
</g>
<g>
</g>
<g>
</g>
<g>
</g>
<g>
</g>
<g>
</g>
<g>
</g>
<g>
</g>
<g>
</g>
<g>
</g>
<g>
</g>
<g>
</g>
<g>
</g>
</svg>
